Patient4_TMGait_0pt8_01_left_46_EMG.mot
version=1
nRows=34
nColumns=33
inDegrees=no
endheader
time	1LAddLong	2LGlutMax	3LGlutMed	4LIliopsoas	5LSemiMemb	6LBicFemLong	7LRecFem	8LVastMed	9LVastLat	10LGasMed	11LTibAnt	12lTibPost	13LPeroneusLong	14LSol	15LExtDigLong	16LFlexDigLong	17RAddLong	18RGlutMax	19RGlutMed	20RIliopsoas	21RSemiMemb	22RBicFemLong	23RRecFem	24RVastMed	25RVastLat	26RGasMed	27RTibAnt	28RTibPost	29RPeroneusLong	30RSol	31RExtDigLong	32RFlexDigLong
51.602	0.023956	1.0883	0.057983	0.009918	0.011444	-0.50034	0.11246	-0.002441	-0.23102	-0.18402	-0.022736	-0.003357	0.19348	-0.63492	0.077667	0.036469	0.11948	-0.3891	-0.1889	-0.093079	-0.052948	-0.088196	0.70038	-0.067902	0.013275	0.030823	-0.049286	0.20721	-0.5249	1.0461	-0.002441	0.01297
51.603	0.049133	1.1687	-0.010071	0.001984	0.17288	-0.39764	0.2478	-0.026093	-0.27512	-0.17868	-0.007935	0.003204	0.92438	-0.50476	0.081329	0.054016	0.12192	-0.2681	-0.23987	-0.049744	-0.041351	-0.074158	0.71976	-0.080566	-0.012207	0.039825	-0.020294	0.088501	-0.89508	-0.47882	-0.007172	0.010529
51.604	0.034332	1.1357	0.11444	-0.000153	0.1828	-0.33096	0.28793	-0.03479	-0.38437	-0.29541	0.023041	0.014343	0.73685	-0.31555	0.018616	0.033569	0.096893	-0.24445	-0.457	0.040436	-0.033417	-0.06485	0.69946	-0.042877	0.011444	0.033417	-0.033417	-0.014343	-0.53375	-1.1893	0.001068	0.012665
51.605	0.03006	1.004	0.067291	0.009308	0.10803	-0.10284	0.2562	-0.002441	-0.42313	-0.42679	-0.02243	0.033112	0.32135	-0.00824	0.2214	0.018311	0.069427	-0.20248	-0.4837	0.079651	-0.046387	-0.065918	0.75378	0.031281	0.01709	0.037537	-0.028229	-0.18036	-0.26627	-1.0532	0.001984	0.00351
51.606	0.020142	0.91034	0.066376	-0.00946	0.067444	0.043488	0.22049	0.034943	-0.28427	-0.40024	0.008698	0.042114	-1.2788	0.12482	0.14145	0.031433	0.036163	-0.19257	-0.14511	0.037994	-0.044403	-0.063629	0.8548	0.003204	-0.0177	0.033264	0.009308	-0.065613	-0.32669	-0.51559	-0.002136	-0.009918
51.607	0.031738	0.78827	0.020294	0.003815	0.06485	0.046082	0.29465	0.037689	-0.036926	-0.088348	0.086517	0.045624	-1.153	0.27756	-0.1416	0.032501	-0.013123	-0.18845	-0.7254	0.060577	-0.052338	-0.054016	0.89249	0.001831	-0.053253	0.033722	0.002747	0.008392	0.39337	0.18082	0.001526	-0.013885
51.608	0.02594	0.64651	-0.080109	-0.003357	0.022278	0.11139	0.38116	0.024719	-0.07843	-0.10696	0.1413	0.055695	-0.26352	0.17349	-0.33722	0.024261	-0.01709	-0.19684	-0.82565	0.050201	-0.041504	-0.034485	0.80688	-0.003052	-0.035706	0.034027	-0.045319	0.017853	0.59937	-0.1033	0.000916	-0.014648
51.609	0.021515	0.59738	-0.20584	0.018921	-0.000916	0.19287	0.4039	-0.000458	-0.28976	-0.25864	0.12589	0.066071	0.11047	0.31067	-0.30273	0.033264	-0.025024	-0.20218	-0.80124	0.033112	-0.02594	-0.011139	0.76538	0.03952	-0.015564	0.045624	-0.015717	-0.13809	0.49545	-0.39703	-0.001373	-0.018158
51.61	0.013733	0.44327	-0.30685	0.013275	-0.025177	0.21637	0.38086	-0.007935	-0.36179	-0.20767	-0.039673	0.074921	0.47394	0.26016	-0.24246	0.025482	-0.015717	-0.21393	-0.86609	-0.076447	0.010071	0.022736	0.70877	0.049286	-0.016174	0.022278	0.10971	-0.30868	-0.13397	-0.45715	-0.001526	-0.021667
51.611	0.010529	0.32791	-0.39444	0.015717	-0.043793	0.080261	0.3537	0.003815	-0.35248	-0.087433	-0.16602	0.088959	0.38162	0.13519	-0.15671	0.041656	0.037079	-0.16602	-0.90683	-0.071869	0.019226	0.013885	0.75623	0.077057	-0.03479	-0.005493	0.077515	-0.70343	0.13336	0.016174	0.005035	-0.019379
51.612	0.00824	0.28366	-0.4332	0.007935	-0.050964	-0.1709	0.31387	-0.003967	-0.30304	0.17502	-0.10101	0.10269	0.61645	-0.013733	-0.2446	0.028381	0.11047	-0.13657	-0.96298	-0.10147	0.052185	0.048218	0.83191	0.088348	-0.042419	-0.018463	0.1001	-0.058746	0.42221	0.54764	0.001221	-0.022583
51.613	0.000763	0.22293	-0.33386	0.00061	-0.072632	-0.053406	0.3479	0.001984	-0.16968	0.28885	-0.09079	0.10819	0.10193	-0.13077	-0.092468	0.036316	0.15701	-0.052948	-1.0107	-0.121	0.076752	0.063019	0.8609	0.084839	-0.020752	-0.063171	0.093994	0.42053	-0.098724	0.31357	0.004578	-0.011902
51.614	-0.013885	0.24811	-0.2124	0.000916	-0.1239	0.070343	0.38834	0.003357	-0.066528	0.13367	0.006256	0.121	-0.65521	0.080566	0.082855	0.038605	0.2066	0.051727	-0.92224	-0.09201	0.070038	0.059967	0.8197	0.032196	-0.048218	-0.045013	0.04364	0.21622	-0.1294	-0.14557	-0.000305	-0.004883
51.615	-0.025787	0.30045	-0.051727	-0.027924	-0.15625	-0.041656	0.44739	0.013733	-0.16724	0.19073	0.12589	0.11963	-0.070801	0.2449	-0.03418	0.035095	0.17654	0.16922	-0.9137	-0.10315	0.065918	0.048828	0.84824	0.046539	-0.045624	0.022736	0.05722	0.18112	0.13519	-0.14023	-0.002136	0.007324
51.616	-0.008698	0.25681	0.12726	-0.00824	-0.1831	-0.16617	0.47043	0.009155	-0.19409	0.3157	0.21851	0.13947	-0.17883	0.074921	0.098114	0.04837	0.10269	0.19409	-1.0564	-0.088196	0.061035	0.035706	0.83283	0.03067	-0.042267	0.068359	-0.12756	0.16968	0.38971	-0.000305	-0.001068	0.01358
51.617	0.012054	0.21851	0.015869	-0.003662	-0.096436	-0.13718	0.34683	-0.004425	-0.1474	0.1564	0.24979	0.13733	-0.50934	0.14618	0.28214	0.008698	0.051117	0.15671	-1.2604	-0.1062	0.048218	0.010223	0.8342	-0.039825	-0.060577	0.07019	-0.18662	-0.01358	0.12192	0.063171	0.001678	-0.001068
51.618	0.042419	0.1741	-0.071564	-0.003052	0.013733	-0.076447	0.15732	-0.010834	-0.087891	0.18234	0.25696	0.14816	-0.16968	0.20844	0.54718	0.048523	0.042267	0.2211	-1.328	-0.047913	0.041199	-0.010376	0.76614	-0.028992	-0.065613	0.002747	0.015869	-0.27466	-0.056763	-0.29862	-0.001373	-0.02533
51.619	0.059052	0.16251	-0.16327	0.011597	-0.044861	-0.05661	0.080566	0.001221	-0.043945	-0.13367	0.064087	0.14847	-0.09552	0.14206	0.73395	0.13412	0.027008	0.21927	-1.3887	-0.035858	0.034332	-0.015564	0.77866	-0.062866	-0.070953	-0.056152	0.085297	-0.05188	0.67246	-0.62653	0.001526	-0.016327
51.62	0.051117	0.081329	-0.22781	0.003815	-0.061951	-0.088806	0.080414	0.012054	-0.0354	-0.28946	-0.20767	0.15091	0.14465	-0.2832	0.033875	-0.16678	0.027008	0.22827	-1.6864	-0.13214	0.033264	-0.017853	0.85678	-0.046387	-0.055237	-0.087891	0.1059	0.16754	0.57968	-0.70084	-0.001984	-0.011292
51.621	0.041046	-0.029297	-0.16129	0.008087	-0.061646	0.011292	0.21866	0.003967	0.026398	0.27985	-0.027771	0.15015	0.14603	-0.76813	-0.14877	0.077057	0.014191	0.17899	-1.7375	-0.11704	0.029602	-0.015259	0.89386	-0.11307	-0.043488	-0.054932	-0.026245	-0.23209	0.58502	-0.27359	0.000763	-0.015259
51.622	0.033417	-0.1474	-0.040588	0.010834	-0.068054	-0.020294	0.26291	0.011292	0.004578	1.0646	-0.10162	0.12802	0.39795	-0.66177	-0.16602	0.24765	0.048218	0.2211	-1.5073	-0.13916	0.025787	0.061035	0.91278	-0.14038	-0.0354	-0.02243	-0.030975	0.3981	0.62286	0.53696	0.001068	-0.015259
51.623	0.040283	-0.23865	0.036316	0.000305	-0.038605	-0.23438	0.29511	0.028381	-0.024109	0.32516	-0.15396	0.1059	0.6105	-0.2092	-0.18845	-0.023346	0.06012	0.20859	-1.6612	-0.050507	0.036774	0.19562	0.7991	-0.092773	-0.021057	0.029144	-0.067444	0.14999	0.49149	0.60745	0.001526	-0.018616
51.624	0.048523	-0.31006	0.076447	0.016022	-0.023346	-0.15717	0.23636	0.029297	-0.097656	-0.32166	-0.002899	0.095215	0.20752	0.006561	-0.086365	-0.093842	0.074005	0.21637	-1.7369	0.087891	0.0354	0.16144	0.9198	-0.093536	-0.021057	0.041809	-0.25238	0.019226	0.093994	0.11765	-0.00061	-0.016937
51.625	0.040283	-0.32837	0.077209	0.015869	-0.0383	0.04303	0.19775	0.019989	-0.025635	0.13367	-0.019989	0.092468	0.29907	0.1149	-0.048523	-0.016479	0.032349	0.31906	-1.6777	0.3035	0.02533	0.10452	1.1067	-0.062714	-0.000458	0.018616	-0.10483	0.12299	-0.28854	0.18524	0.001221	-0.013275
51.626	0.029297	-0.38483	0.06546	0.045471	-0.055847	0.16892	0.15045	0.026398	0.14908	0.11536	-0.050812	0.076294	-0.15091	0.31433	0.026245	0.014496	0.002136	0.35385	-1.7578	0.37643	0.016937	0.081482	1.1324	-0.050812	-0.013275	-0.036163	0.03418	-0.25345	-0.50812	0.14328	-0.000305	-0.018768
51.627	0.015411	-0.40512	0.092926	0.027924	-0.077362	0.17105	0.054474	0.027771	0.20798	-0.52017	0.007782	0.053558	-0.064392	0.065308	-0.17944	0.025482	-0.041351	0.41412	-1.7439	0.26977	0.017242	0.10178	0.98099	-0.044098	-0.029602	-0.041199	0.13031	-0.23727	0.26871	0.027008	-0.00351	-0.015106
51.628	0.004272	-0.49454	0.048828	0.034485	-0.091553	0.1564	-0.055695	0.027924	0.098877	-0.81711	0.019379	0.02594	-0.73502	0.1033	-0.001068	0.040283	-0.062714	0.42297	-1.8662	0.16663	0.006561	0.08667	0.75134	-0.008392	-0.071716	-0.023041	0.14389	0.17746	0.14206	-0.177	-0.001526	-0.015411
51.629	-0.014343	-0.45776	-0.12024	0.002594	-0.11429	0.22614	-0.20523	0.030975	-0.050507	-0.51682	-0.006256	-0.003052	-0.57831	0.000458	0.056	0.015411	-0.084381	0.41611	-1.7467	0.15991	-0.005035	0.086365	0.55267	-0.017853	-0.093994	0.027008	0.26886	0.054016	0.19043	-0.27802	-0.002441	-0.010376
51.63	-0.023651	-0.34927	-0.12558	0.003052	-0.15793	0.23682	-0.31815	0.027161	-0.011444	-0.13199	-0.020905	-0.026398	-0.66696	-0.12131	0.10193	0.007477	-0.079956	0.41473	-1.8031	0.14282	-0.015717	0.090637	0.38055	0.025024	-0.11734	0.046082	0.21957	0.044708	0.33798	-0.49088	0.000305	-0.005493
51.631	-0.039368	-0.23514	-0.22049	-0.003662	-0.16327	0.13702	-0.34088	0.028076	0.17792	-0.1297	0.05127	-0.053711	0.52445	0.090027	0.11414	0	-0.074463	0.41687	-1.8706	0.10971	-0.015259	0.087585	0.33478	-0.036469	-0.12497	0.058899	0.045166	-0.04837	-0.46265	-0.48492	-0.001526	0.014191
51.632	-0.033875	-0.10025	-0.13443	-0.023956	-0.17105	0.1474	-0.32028	0.032349	0.15289	-0.37979	0.044556	-0.075989	0.39658	-0.04776	-0.21637	0.001526	-0.037689	0.51697	-1.8416	-0.036163	-0.016174	0.081635	0.40085	-0.077972	-0.11414	0.02182	-0.45563	-0.095367	-0.13534	-0.54993	0.002594	0.003967
51.633	-0.027008	-0.006866	0.17609	0.002747	-0.11795	0.17914	-0.26032	-0.024414	0.052643	-0.31723	0.12985	-0.09079	-0.11231	-0.18692	-0.48462	-0.007629	0.004883	0.60074	-1.9847	-0.24063	-0.011444	0.11597	0.4892	-0.15823	-0.097809	-0.066376	-0.37689	-0.10635	-0.42053	-0.58853	0.007324	-0.002747
51.634	-0.006409	-0.066681	0.16647	0.016785	-0.074768	0.29984	-0.18112	-0.020752	0.068512	-0.15839	0.21683	-0.11063	-0.17975	-0.04425	-0.38711	0.003052	-0.011139	0.59219	-1.5994	-0.24216	-0.018463	0.13138	0.60135	-0.18662	-0.097656	-0.093536	-0.12589	-0.010071	-0.42923	-0.74326	-0.001526	-0.014191
51.635	0.005035	-0.002899	0.21729	-0.024414	-0.027008	0.30456	-0.13733	-0.019073	0.034332	-0.099335	0.31845	-0.10407	0.15274	0.2301	0.057983	-0.007172	-0.037079	0.54688	-1.1462	-0.16953	-0.004578	0.12772	0.62408	-0.18829	-0.080261	-0.062714	-0.34653	0.007324	0.12634	-0.50491	0.000305	-0.025787
